<?xml version="1.0" standalone="no"?>
<!DOCTYPE svg PUBLIC "-//W3C//DTD SVG 20010904//EN"
 "http://www.w3.org/TR/2001/REC-SVG-20010904/DTD/svg10.dtd">
<svg version="1.0" xmlns="http://www.w3.org/2000/svg"
 width="2040.000000pt" height="192.000000pt" viewBox="0 0 2040.000000 192.000000"
 preserveAspectRatio="xMidYMid meet">
<metadata>
Created by potrace 1.16, written by Peter Selinger 2001-2019
</metadata>
<g transform="translate(0.000000,192.000000) scale(0.100000,-0.100000)"
fill="#000000" stroke="none">
<path d="M10660 1907 c0 -7 -16 -29 -36 -48 -20 -18 -43 -47 -51 -64 -25 -47
-122 -192 -139 -206 -9 -7 -31 -43 -49 -79 -18 -36 -40 -72 -48 -78 -8 -7 -32
-52 -53 -100 -21 -48 -45 -98 -55 -112 -29 -44 -31 -67 -10 -108 43 -84 144
-71 209 26 74 111 82 122 92 122 6 0 24 22 40 49 17 26 48 60 69 75 21 15 100
93 175 174 365 394 347 362 212 362 -72 0 -96 -3 -96 -13 0 -19 -83 -97 -104
-97 -19 0 -19 10 2 78 l11 32 -85 0 c-62 0 -84 -3 -84 -13z"/>
<path d="M12724 1895 c-15 -16 -38 -25 -70 -29 -27 -4 -69 -13 -94 -22 -25 -9
-75 -24 -111 -34 -89 -24 -205 -71 -253 -104 -21 -14 -43 -26 -47 -26 -5 0
-36 -21 -70 -47 -33 -27 -75 -57 -93 -68 -79 -49 -290 -294 -350 -406 -13 -25
-32 -51 -40 -58 -9 -8 -16 -19 -16 -26 0 -7 -16 -32 -35 -56 -19 -24 -35 -50
-35 -57 0 -7 -14 -41 -30 -76 -38 -78 -61 -273 -40 -337 17 -50 8 -67 -37 -74
-21 -3 -58 -12 -83 -19 -64 -20 -184 -28 -203 -13 -8 7 -18 29 -21 49 -8 42
-27 56 -107 77 -80 22 -297 -11 -353 -54 -17 -12 -49 -28 -71 -35 -22 -7 -50
-21 -63 -31 -13 -10 -37 -21 -55 -24 -18 -4 -79 -30 -137 -57 -74 -36 -123
-53 -170 -59 -36 -4 -84 -13 -108 -19 -72 -18 -173 23 -186 74 -11 43 17 93
56 101 48 10 78 42 78 82 0 44 -27 60 -122 68 l-77 7 -93 -93 c-97 -98 -130
-117 -263 -154 -27 -8 -67 -23 -88 -34 -44 -22 -134 -36 -172 -27 -70 18 -81
99 -29 215 44 98 29 141 -49 141 -28 0 -42 -8 -67 -36 -40 -46 -116 -104 -136
-104 -20 0 -70 -26 -113 -57 -67 -51 -283 -99 -331 -73 -37 20 -47 126 -13
131 5 1 40 3 78 4 77 3 215 49 267 88 124 94 141 136 71 177 -43 26 -56 27
-168 12 -207 -28 -228 -33 -260 -61 -17 -15 -53 -40 -79 -56 -27 -17 -70 -51
-95 -78 -40 -41 -54 -48 -106 -58 -33 -6 -80 -19 -105 -29 -43 -17 -109 -32
-350 -81 -156 -31 -158 -32 -185 -25 -44 11 -28 39 79 144 72 71 108 114 117
140 6 20 18 46 25 57 59 85 -112 169 -241 119 -22 -9 -60 -23 -85 -31 -53 -19
-125 -71 -218 -157 -106 -98 -187 -144 -357 -205 -28 -10 -69 -28 -90 -39 -22
-11 -64 -25 -93 -31 -29 -6 -66 -18 -82 -26 -34 -18 -86 -20 -96 -3 -8 13 48
66 130 122 65 43 86 80 86 149 0 41 -4 48 -70 112 l-71 68 -102 -6 c-108 -5
-282 -52 -307 -82 -6 -7 -33 -22 -58 -31 -26 -10 -87 -48 -137 -85 -96 -72
-148 -92 -263 -104 -35 -3 -98 -20 -140 -37 -189 -75 -309 -115 -319 -105 -13
13 10 79 42 122 19 25 35 49 35 53 0 13 172 183 213 210 21 14 79 71 129 126
67 75 105 108 147 129 31 16 88 59 126 96 66 64 98 87 189 141 40 24 110 80
161 129 17 16 49 34 73 40 23 7 59 23 79 36 20 14 43 25 52 26 9 0 45 15 81
32 53 26 66 37 68 59 13 109 -168 117 -278 12 -26 -24 -137 -94 -149 -94 -4 0
-43 -23 -86 -51 -44 -29 -95 -58 -115 -67 -19 -8 -47 -22 -61 -32 -14 -10 -38
-22 -54 -26 -16 -4 -72 -30 -125 -57 -173 -91 -385 -197 -393 -197 -5 0 -23
-11 -40 -24 -18 -13 -43 -27 -57 -31 -14 -4 -45 -18 -70 -31 -83 -42 -176 -84
-191 -84 -8 0 -58 -29 -112 -64 -101 -66 -143 -84 -159 -68 -16 16 7 47 79
103 38 28 93 76 123 106 78 75 169 153 179 153 9 0 62 46 186 161 33 31 84 78
113 105 30 27 64 69 77 94 13 26 31 52 39 59 20 17 21 70 0 99 -28 41 -83 31
-156 -29 -35 -28 -73 -55 -86 -60 -12 -5 -64 -44 -115 -87 -50 -44 -102 -85
-115 -91 -13 -7 -52 -36 -86 -65 -34 -29 -73 -59 -87 -66 -29 -16 -66 -43
-120 -89 -21 -18 -61 -50 -89 -70 -137 -101 -188 -141 -249 -197 -37 -33 -89
-73 -116 -89 -28 -16 -72 -49 -99 -73 -28 -24 -68 -53 -90 -64 -23 -11 -52
-28 -66 -38 -14 -10 -92 -52 -175 -95 -82 -42 -154 -80 -160 -85 -5 -4 -28
-13 -50 -20 -22 -7 -64 -25 -92 -41 -29 -16 -59 -29 -66 -29 -7 0 -31 -9 -52
-20 -22 -11 -89 -30 -150 -41 -60 -11 -141 -26 -180 -34 -38 -9 -81 -15 -94
-15 -13 0 -71 -16 -128 -36 -108 -36 -159 -40 -176 -13 -13 21 -2 64 22 86 10
10 28 36 40 58 50 92 185 230 235 241 17 3 41 13 54 21 69 43 240 103 297 103
75 0 108 50 67 100 -32 40 -83 37 -222 -15 -69 -26 -156 -58 -195 -71 -38 -14
-78 -33 -90 -43 -11 -10 -34 -23 -52 -29 -68 -23 -261 -248 -289 -337 -7 -22
-19 -57 -28 -77 -23 -54 -20 -83 15 -123 50 -57 149 -73 249 -40 30 10 88 26
129 35 403 93 678 170 730 206 20 13 43 24 53 24 9 0 29 10 45 23 36 30 166
107 180 107 5 0 18 9 28 20 10 11 27 22 38 26 27 9 123 70 169 108 81 67 104
83 134 93 l32 11 -12 -30 c-6 -16 -31 -46 -56 -66 -25 -20 -75 -66 -111 -102
-37 -36 -95 -92 -130 -126 -69 -65 -139 -168 -139 -205 0 -13 12 -36 27 -51
38 -40 75 -37 130 10 25 20 62 48 82 62 98 64 117 78 130 94 8 10 31 26 50 37
52 28 110 67 177 119 32 24 79 55 104 68 76 40 135 76 181 106 24 17 61 36 83
43 21 8 52 24 70 37 17 13 53 34 81 47 57 28 75 37 126 64 172 92 224 116 242
113 24 -4 -61 -96 -166 -182 -26 -21 -65 -66 -86 -100 -22 -33 -51 -72 -64
-86 -14 -14 -33 -41 -42 -60 -10 -19 -26 -45 -35 -58 -22 -28 -36 -132 -21
-160 16 -29 83 -52 156 -52 64 0 79 5 211 66 28 13 60 24 72 24 11 0 68 16
126 35 144 48 156 47 200 -15 59 -82 86 -90 267 -83 124 4 164 10 203 26 l49
21 40 -24 c127 -72 297 -60 467 33 25 13 67 30 95 36 82 20 239 107 314 175
151 135 275 216 331 216 63 0 12 -73 -96 -136 -87 -51 -174 -153 -174 -204 0
-34 41 -99 75 -120 39 -24 164 -43 230 -35 111 14 345 77 382 102 21 14 67 34
103 44 36 9 85 24 110 34 61 23 90 10 90 -41 0 -78 153 -168 248 -146 26 6 59
8 74 5 36 -7 189 49 268 98 66 41 80 44 101 23 11 -11 28 -42 37 -69 13 -36
26 -54 47 -64 17 -9 56 -30 87 -48 53 -31 62 -33 126 -29 82 5 188 36 251 73
41 24 150 63 177 63 7 0 34 -20 61 -44 26 -24 80 -58 118 -76 l70 -32 144 6
c132 5 146 8 168 28 19 18 40 24 101 28 66 5 83 11 121 38 24 18 49 32 55 32
6 0 48 19 92 41 88 45 104 44 104 -2 0 -34 44 -82 97 -105 42 -18 158 -2 224
31 25 13 63 27 85 31 21 3 51 13 66 20 17 9 56 13 105 12 43 -1 112 5 154 14
96 19 108 13 143 -58 36 -75 33 -71 86 -139 57 -73 70 -95 70 -122 0 -23 2
-23 124 -23 142 0 149 7 81 80 -18 19 -48 58 -66 86 -19 29 -55 79 -81 113
-72 93 -61 131 40 131 20 0 62 7 92 16 30 9 93 25 140 35 47 11 101 26 120 33
19 7 91 24 160 36 69 13 137 29 153 37 15 7 80 27 145 44 64 17 140 43 167 58
28 15 79 35 115 44 62 16 273 107 325 141 13 9 49 25 79 37 31 11 58 25 62 30
3 5 33 23 67 39 56 26 82 45 192 133 17 13 41 30 55 37 42 22 100 73 139 120
20 25 68 74 106 109 42 38 84 89 105 126 19 34 47 76 62 93 15 18 29 41 33 51
3 11 14 23 24 26 10 3 33 24 52 47 35 44 51 130 35 193 l-6 25 -298 -1 -297
-1 75 -24 c62 -21 89 -24 154 -20 119 7 256 -39 256 -84 0 -22 -49 -123 -102
-212 -52 -86 -162 -202 -247 -262 -42 -29 -105 -81 -141 -115 -96 -90 -100
-93 -142 -108 -21 -7 -59 -28 -85 -47 -52 -37 -214 -116 -302 -147 -30 -10
-59 -23 -65 -28 -6 -5 -34 -16 -62 -24 -28 -8 -65 -22 -82 -31 -17 -9 -55 -21
-84 -27 -29 -6 -69 -20 -89 -30 -20 -10 -63 -25 -95 -33 -32 -8 -126 -33 -209
-56 -82 -22 -166 -43 -185 -46 -51 -8 -207 -43 -265 -59 -27 -8 -80 -19 -117
-25 -37 -6 -79 -15 -93 -20 -38 -15 -81 -12 -95 5 -24 29 -6 203 28 272 11 21
25 56 32 78 7 22 32 64 54 94 23 29 64 86 91 126 66 95 107 148 123 158 6 4
19 23 26 42 16 37 82 105 136 141 19 12 55 42 80 66 49 46 58 52 242 144 93
47 138 63 182 68 94 10 207 36 246 56 20 10 54 21 75 25 22 4 51 14 65 23 15
10 61 19 120 23 300 22 418 41 435 70 4 5 -160 9 -417 8 l-423 -1 -21 -23z
m-6253 -1175 c33 -18 21 -38 -43 -72 -68 -36 -153 -115 -183 -172 -22 -40 -56
-56 -122 -56 -24 0 -64 -5 -88 -11 -133 -34 -96 85 51 159 32 16 68 40 79 52
25 27 132 77 205 95 70 17 77 17 101 5z"/>
<path d="M18463 888 c-60 -32 -189 -134 -210 -165 -70 -101 -144 -148 -288
-182 -49 -12 -115 -28 -145 -36 -102 -28 -194 -46 -275 -56 -44 -5 -114 -16
-155 -25 -41 -9 -141 -18 -222 -21 -137 -4 -147 -4 -166 15 -18 18 -19 26 -11
58 18 63 -6 154 -55 207 -39 42 -45 45 -111 51 -160 15 -330 -38 -424 -134
-68 -69 -107 -78 -158 -37 -15 13 -45 34 -65 46 -21 12 -38 26 -38 31 0 4 -15
13 -32 20 -18 7 -42 21 -53 31 -60 53 -114 45 -200 -30 -119 -105 -375 -258
-410 -245 -32 13 -15 50 56 119 105 103 121 160 53 185 -63 24 -89 14 -190
-72 -75 -65 -107 -85 -143 -94 -45 -10 -117 -47 -176 -90 -16 -12 -46 -25 -65
-29 -19 -4 -55 -18 -79 -31 -24 -13 -62 -27 -85 -30 -23 -3 -63 -12 -90 -20
-126 -36 -104 77 24 122 103 35 135 57 138 92 6 64 -15 79 -122 87 -91 6 -98
5 -139 -18 -33 -19 -61 -26 -127 -29 -50 -3 -109 -14 -144 -26 -33 -12 -87
-27 -120 -33 -33 -6 -80 -21 -105 -34 -62 -31 -196 -72 -277 -85 -76 -12 -129
-1 -139 30 -6 20 10 60 24 60 5 0 36 27 70 59 72 70 76 89 31 178 -41 82 -99
105 -172 67 -26 -14 -39 -14 -95 -4 -139 27 -435 -62 -567 -169 -21 -17 -42
-31 -46 -31 -23 0 -60 -52 -60 -84 0 -110 232 -215 358 -164 51 21 236 60 253
53 8 -3 23 -18 33 -33 48 -68 90 -93 169 -99 110 -8 327 38 412 89 19 10 65
24 102 29 44 6 80 18 103 34 38 26 113 35 125 15 4 -6 -9 -29 -29 -50 -30 -33
-36 -48 -36 -84 0 -49 3 -53 84 -95 68 -36 79 -37 131 -11 31 16 59 20 132 20
92 0 94 1 205 54 62 30 130 59 151 64 20 6 51 22 68 37 42 35 55 30 108 -41
67 -90 119 -114 165 -79 11 8 35 15 54 15 38 0 66 12 102 46 14 12 43 29 66
37 40 13 87 47 219 155 l64 53 58 -32 c32 -18 70 -41 85 -51 14 -10 32 -18 38
-18 36 0 179 -77 223 -119 l48 -46 122 -2 c105 -1 127 1 155 18 46 27 77 24
182 -16 142 -54 194 -61 336 -41 66 9 145 16 175 16 30 1 72 8 94 16 22 8 85
22 140 30 55 8 132 26 170 40 73 24 191 45 213 37 24 -10 11 -34 -60 -114 -40
-44 -93 -106 -117 -137 -24 -32 -59 -74 -78 -95 -58 -65 -55 -67 135 -67 l167
1 28 42 c56 86 73 109 109 153 21 25 49 65 64 90 15 25 38 58 53 74 14 16 38
44 52 62 79 98 175 196 211 214 47 25 164 136 173 165 25 78 -156 140 -252 87z
m-4935 -224 c17 -12 22 -24 20 -47 -3 -34 -19 -45 -98 -70 -25 -8 -58 -19 -75
-25 -97 -34 -203 -43 -219 -20 -21 34 55 95 154 124 47 14 103 32 125 39 54
18 67 18 93 -1z m3237 -69 c0 -16 -13 -23 -70 -38 -84 -21 -110 -19 -110 8 0
15 13 22 65 36 84 22 115 20 115 -6z"/>
</g>
</svg>
